<svg xmlns="http://www.w3.org/2000/svg" width="78" height="78" viewBox="0 0 78 78">
  <g id="Layer_2" data-name="Layer 2" transform="translate(-37.042 -4.042)">
    <g id="icons_Q2" data-name="icons Q2" transform="translate(38.542 5.542)">
      <path id="Path_347" data-name="Path 347" d="M75.25,71.5H11.5V59.688l.75-.562,18-18L41.688,52.563,67.75,26.688v9a3.938,3.938,0,0,0,3.188,3.938,3.75,3.75,0,0,0,4.313-3.75V17.125a3.75,3.75,0,0,0-3.75-3.75H52.75A3.75,3.75,0,0,0,49,17.688a3.937,3.937,0,0,0,3.938,3.188h9.75L41.313,41.5,30.25,30.625,11.5,49.375V7.75a3.75,3.75,0,1,0-7.5,0V79H75.25a3.75,3.75,0,0,0,0-7.5Z" transform="translate(-4 -4)" fill="none" stroke="#813188" stroke-width="3"/>
    </g>
  </g>
</svg>
