<svg xmlns="http://www.w3.org/2000/svg" width="83.517" height="75.465" viewBox="0 0 83.517 75.465">
  <path id="Icon_material-business-center" data-name="Icon material-business-center" d="M35.207,56.836V52.81H7.066l-.04,16.1a8.024,8.024,0,0,0,8.052,8.052H71.439a8.024,8.024,0,0,0,8.052-8.052V52.81H51.31v4.026ZM75.465,20.6H59.321V12.552L51.27,4.5h-16.1l-8.052,8.052V20.6H11.052A8.075,8.075,0,0,0,3,28.655V40.733a8.024,8.024,0,0,0,8.052,8.052H35.207V40.733h16.1v8.052H75.465a8.075,8.075,0,0,0,8.052-8.052V28.655A8.075,8.075,0,0,0,75.465,20.6Zm-24.155,0h-16.1V12.552h16.1Z" transform="translate(-1.5 -3)" fill="none" stroke="#813188" stroke-linecap="round" stroke-linejoin="round" stroke-width="3"/>
</svg>
