<svg xmlns="http://www.w3.org/2000/svg" width="109.538" height="71.5" viewBox="0 0 109.538 71.5">
  <g id="Group_31" data-name="Group 31" transform="translate(-1174.962 -908.5)">
    <path id="Icon_awesome-coins" data-name="Icon awesome-coins" d="M66.5,52.642v5.546c0,4.585-11.17,8.313-24.937,8.313s-24.937-3.728-24.937-8.312V52.642c5.364,3.78,15.17,5.546,24.938,5.546S61.136,56.421,66.5,52.642ZM24.938,16.625C11.17,16.625,0,12.9,0,8.313S11.17,0,24.938,0,49.875,3.728,49.875,8.313,38.705,16.625,24.938,16.625ZM66.5,39.017v6.7c0,4.585-11.17,8.313-24.937,8.313S16.625,50.3,16.625,45.719v-6.7c5.364,4.416,15.183,6.7,24.938,6.7S61.136,43.433,66.5,39.017ZM12.469,40.446C5.026,39,0,36.328,0,33.25V27.7c3.013,2.13,7.442,3.585,12.469,4.481ZM41.563,20.781c13.768,0,24.938,4.65,24.938,10.391S55.33,41.563,41.563,41.563s-24.937-4.65-24.937-10.391S27.795,20.781,41.563,20.781ZM13.079,28.094C5.286,26.691,0,23.937,0,20.781V15.235c4.611,3.26,12.534,5.013,20.872,5.429C17.041,22.522,14.222,25.015,13.079,28.094Z" transform="translate(1216.5 910)" fill="#f5eff6" stroke="#813188" stroke-linecap="round" stroke-linejoin="round" stroke-width="3"/>
    <path id="Icon_metro-coins" data-name="Icon metro-coins" d="M59.8,66.886a24.48,24.48,0,1,1-24.48-24.48A24.482,24.482,0,0,1,59.8,66.886ZM43.016,69.547a7.477,7.477,0,0,0-1.378-2.182,9.014,9.014,0,0,0-1.944-1.595,22.415,22.415,0,0,0-2.228-1.193q-1.108-.51-2.228-.993a14.536,14.536,0,0,1-1.955-1,4.927,4.927,0,0,1-1.378-1.224,2.642,2.642,0,0,1-.514-1.63,3.2,3.2,0,0,1,.227-1.2,2.516,2.516,0,0,1,.7-.969,3.387,3.387,0,0,1,1.168-.629,5.25,5.25,0,0,1,1.64-.227,7.855,7.855,0,0,1,2.207.29,12.614,12.614,0,0,1,1.77.654q.766.357,1.29.661a1.811,1.811,0,0,0,.766.3.536.536,0,0,0,.381-.129.861.861,0,0,0,.217-.416,4.1,4.1,0,0,0,.108-.72c.021-.294.031-.654.031-1.077,0-.378-.007-.7-.021-.948a4.953,4.953,0,0,0-.073-.636,1.986,1.986,0,0,0-.129-.406,1.656,1.656,0,0,0-.3-.367,3.483,3.483,0,0,0-.9-.542,10.355,10.355,0,0,0-1.549-.584,13.739,13.739,0,0,0-1.878-.413c-.136-.021-.276-.014-.413-.031V48.725H33.2v3.616a12.609,12.609,0,0,0-1.839.381,8.65,8.65,0,0,0-3.015,1.518,7.336,7.336,0,0,0-2.032,2.553,8.966,8.966,0,0,0-.231,6.606,7.5,7.5,0,0,0,1.367,2.2,8.974,8.974,0,0,0,1.909,1.591,19.786,19.786,0,0,0,2.207,1.193c.759.35,1.493.678,2.207.993a14.677,14.677,0,0,1,1.909,1A5.249,5.249,0,0,1,37.05,71.6a2.653,2.653,0,0,1,.525,1.651,3.672,3.672,0,0,1-.3,1.514,3.065,3.065,0,0,1-.885,1.137,4.154,4.154,0,0,1-1.406.71,6.482,6.482,0,0,1-1.881.252,9.847,9.847,0,0,1-2.808-.36,12.88,12.88,0,0,1-2.088-.8,13.817,13.817,0,0,1-1.43-.8,1.829,1.829,0,0,0-.864-.36.634.634,0,0,0-.381.119.789.789,0,0,0-.262.406,3.388,3.388,0,0,0-.143.745c-.031.308-.045.685-.045,1.137a7.748,7.748,0,0,0,.119,1.542,1.612,1.612,0,0,0,.406.818,4.655,4.655,0,0,0,.927.65,9.565,9.565,0,0,0,1.605.7,16.365,16.365,0,0,0,2.217.574,14.742,14.742,0,0,0,2.721.234c.042,0,.08-.007.126-.007v3.368h3.438V81.014c.164-.042.339-.063.5-.108a9.845,9.845,0,0,0,3.322-1.693,8.092,8.092,0,0,0,2.252-2.8,8.742,8.742,0,0,0,.825-3.91,7.636,7.636,0,0,0-.518-2.952Z" transform="translate(1165.626 887.134)" fill="#f5eff6" stroke="#813188" stroke-linecap="round" stroke-linejoin="round" stroke-width="3"/>
  </g>
</svg>
