<svg xmlns="http://www.w3.org/2000/svg" width="146.201" height="130.518" viewBox="0 0 146.201 130.518">
  <path id="Icon_awesome-hand-holding-heart" data-name="Icon awesome-hand-holding-heart" d="M67.483,61.405a4.27,4.27,0,0,0,6.251,0l26.694-27.993A20.319,20.319,0,0,0,99.055,4.291c-7.55-6.545-18.8-5.368-25.714,1.887L70.6,9.046,67.875,6.2c-6.913-7.28-18.164-8.457-25.714-1.912a20.34,20.34,0,0,0-1.373,29.121Zm71.086,19.022a8.114,8.114,0,0,0-10.442,0l-22.65,18.115a15.606,15.606,0,0,1-9.805,3.432h-29a3.922,3.922,0,0,1,0-7.844H85.867a8.161,8.161,0,0,0,8.163-6.52,7.853,7.853,0,0,0-7.746-9.168H47.064A28.85,28.85,0,0,0,28.9,84.888L17.5,94.129H3.922A3.934,3.934,0,0,0,0,98.051v23.532a3.934,3.934,0,0,0,3.922,3.922H91.383a15.707,15.707,0,0,0,9.805-3.432l37.063-29.66A7.84,7.84,0,0,0,138.569,80.427Z" transform="translate(2.5 2.513)" fill="none" stroke="#813188" stroke-linecap="round" stroke-linejoin="round" stroke-width="5"/>
</svg>
