<svg xmlns="http://www.w3.org/2000/svg" width="150.985" height="121.787" viewBox="0 0 150.985 121.787">
  <path id="Icon_awesome-hands-helping" data-name="Icon awesome-hands-helping" d="M111.282,43.778H76.621v12.77a16.418,16.418,0,1,1-32.836,0V28.819l-14.8,8.893a14.563,14.563,0,0,0-7.092,12.5V60.994L3.652,71.529A7.279,7.279,0,0,0,.984,81.494l18.242,31.6a7.3,7.3,0,0,0,9.965,2.668L52.77,102.154H83.918A14.607,14.607,0,0,0,98.512,87.56h3.648a7.289,7.289,0,0,0,7.3-7.3V65.669h1.824a5.46,5.46,0,0,0,5.473-5.473V49.251A5.46,5.46,0,0,0,111.282,43.778Zm33.68-8.528-18.242-31.6A7.3,7.3,0,0,0,116.755.977L93.176,14.59h-23.3a14.7,14.7,0,0,0-7.73,2.212L54.5,21.568a7.248,7.248,0,0,0-3.42,6.18v28.8a9.121,9.121,0,1,0,18.242,0V36.481h41.957a12.778,12.778,0,0,1,12.77,12.77v6.5l18.242-10.535a7.3,7.3,0,0,0,2.668-9.965Z" transform="translate(2.525 2.521)" fill="none" stroke="#813188" stroke-linecap="round" stroke-linejoin="round" stroke-width="5"/>
</svg>
