<svg xmlns="http://www.w3.org/2000/svg" width="146.306" height="114.878" viewBox="0 0 146.306 114.878">
  <path id="Icon_awesome-home" data-name="Icon awesome-home" d="M68.773,34.765,23.549,72.013v40.2a3.925,3.925,0,0,0,3.925,3.925l27.487-.071a3.925,3.925,0,0,0,3.905-3.925V88.666a3.925,3.925,0,0,1,3.925-3.925h15.7a3.925,3.925,0,0,1,3.925,3.925v23.46a3.925,3.925,0,0,0,3.925,3.937l27.478.076a3.925,3.925,0,0,0,3.925-3.925V71.986L72.526,34.765A2.99,2.99,0,0,0,68.773,34.765Zm71.436,25.317L119.7,43.179V9.2A2.944,2.944,0,0,0,116.76,6.26H103.023A2.944,2.944,0,0,0,100.08,9.2V27.014L78.119,8.946a11.774,11.774,0,0,0-14.963,0L1.065,60.082a2.944,2.944,0,0,0-.392,4.145l6.255,7.6a2.944,2.944,0,0,0,4.148.4l57.7-47.523a2.99,2.99,0,0,1,3.753,0l57.7,47.523a2.944,2.944,0,0,0,4.145-.392l6.255-7.6a2.943,2.943,0,0,0-.417-4.153Z" transform="translate(2.506 -3.76)" fill="none" stroke="#813188" stroke-linecap="round" stroke-linejoin="round" stroke-width="5"/>
</svg>
