<svg xmlns="http://www.w3.org/2000/svg" width="58.373" height="80.382" viewBox="0 0 58.373 80.382">
  <g id="Layer_2" data-name="Layer 2" transform="translate(-11.95 -1.79)">
    <g id="icons_Q2" data-name="icons Q2" transform="translate(13.497 3.324)">
      <path id="Path_352" data-name="Path 352" d="M63.324,29.684A27.662,27.662,0,1,0,20.1,52.5V74.461a1.8,1.8,0,0,0,.1.488c-.311,7.739,4.764,2.911,5.259,2.451l10.2-7.953,10.2,7.953c.514.479,5.567,4.744,5.359-2.939V52.5a27.662,27.662,0,0,0,12.1-22.821Zm-48.408,0A20.746,20.746,0,1,1,35.663,50.43,20.746,20.746,0,0,1,14.917,29.684Z" transform="translate(-7.998 -1.97)" fill="none" stroke="#813188" stroke-width="3"/>
      <path id="Path_353" data-name="Path 353" d="M22.129,25.286l-.864,5.359a1.9,1.9,0,0,0,2.593,1.9l4.5-3.285,4.5,3.285a1.9,1.9,0,0,0,2.593-1.9l-.864-5.359,3.631-3.458a1.9,1.9,0,0,0-1.037-3.112l-5.014-.692-2.248-5.014a1.729,1.729,0,0,0-3.112,0l-2.248,5.014-5.014.692A1.9,1.9,0,0,0,18.5,21.828Z" transform="translate(-0.688 5.367)" fill="none" stroke="#813188" stroke-width="3"/>
    </g>
  </g>
</svg>
